<?xml version="1.0" encoding="UTF-8"?>
<!DOCTYPE svg PUBLIC "-//W3C//DTD SVG 1.1//EN" "http://www.w3.org/Graphics/SVG/1.1/DTD/svg11.dtd">
<svg version="1.1" xmlns="http://www.w3.org/2000/svg" xmlns:xlink="http://www.w3.org/1999/xlink" x="0" y="0" width="971" height="868" viewBox="0, 0, 971, 868">
  <defs>
    <clipPath id="Clip_1">
      <path d="M0,868 L970.256,868 L970.256,0.239 L0,0.239 z"/>
    </clipPath>
  </defs>
  <g id="Layer_1">
    <g clip-path="url(#Clip_1)">
      <path d="M544.258,855.549 L608.592,855.549 L584.592,754.882 L568.258,681.549 L544.592,688.549 L526.258,801.216 L544.258,855.549" fill="#FEFEFE"/>
      <path d="M187.031,490.267 C176.916,484.959 171.672,475.916 168.177,465.569 C167.535,463.671 166.977,461.961 165.209,460.609 C153.567,451.706 148.623,439.221 147.286,425.18 C146.53,417.245 146.374,409.202 147.902,401.274 C148.268,399.378 147.889,397.752 147.111,396.006 C114.88,323.663 117.408,251.426 149.463,180.03 C171.444,131.073 204.796,91.263 251.125,63.198 C271.006,51.155 292.396,43.246 315.815,41.669 C318.589,41.482 320.658,40.469 322.765,38.522 C335.02,27.191 349.993,20.834 365.656,15.963 C408.27,2.711 451.963,-2.529 496.316,1.64 C536.205,5.389 574.079,17.367 610.122,34.922 C615.946,37.759 621.481,42.755 627.455,43.279 C633.454,43.806 638.772,37.918 644.441,34.958 C669.008,22.127 695.384,18.939 722.466,20.492 C761.167,22.711 796.483,34.947 826.947,59.26 C868.184,92.171 889.263,135.313 890.52,188.107 C891.055,210.566 886.505,232.475 883.499,254.554 C881.027,272.711 878.066,290.979 881.493,309.217 C887.27,339.963 906.905,358.759 935.558,369.045 C944.042,372.091 952.866,373.779 961.904,374.188 C965.458,374.349 969.009,375.449 969.756,379.092 C970.556,382.995 970.935,387.16 966.577,390.219 C934.593,412.678 899.909,426.961 860.067,425.097 C830.907,423.732 806.194,411.709 784.892,392.156 C783.665,391.031 782.396,389.943 781.258,388.733 C780.239,387.65 779.374,386.422 777.805,384.463 C774.043,396.199 769.455,406.345 764.713,416.455 C762.916,420.286 763.795,425.305 763.073,429.72 C760.772,443.803 754.699,455.593 741.988,463.133 C740.79,463.843 739.843,464.686 739.368,465.997 C736.053,475.137 729.784,481.81 721.799,487.052 C719.651,489.55 716.81,490.974 713.712,491.686 C709.238,492.715 706.761,495.308 705.107,499.634 C697.172,520.392 686.435,539.635 672.967,557.335 C671.847,558.601 670.635,559.79 669.763,561.26 C645.524,591.017 614.954,611.999 579.573,626.305 C572.923,628.994 572.649,629.53 573.608,636.723 C574.553,643.805 575.496,650.89 575.96,658.03 C572.776,663.387 567.151,665.697 562.252,668.887 C560.392,670.099 559.203,668.858 558.413,667.177 C558.27,665.97 557.525,664.665 558.927,663.678 C558.898,663.679 558.869,663.679 558.701,663.682 C557.329,665.291 558.58,667.405 557.853,669.164 C557.184,671.905 555.482,673.743 553.056,675.137 C549.337,677.273 545.929,679.909 542.268,682.14 C540.637,683.133 538.974,684.571 536.856,683.108 C536.718,674.419 539.021,666.039 540.189,657.516 C540.887,652.419 541.647,647.321 542.557,642.253 C543.049,639.511 542.587,637.943 539.295,638.914 C537.545,639.431 535.725,639.712 533.929,640.029 C530.88,640.567 529.263,642.316 528.919,645.349 C527.897,654.359 525.38,662.919 521.086,670.92 C519.567,673.75 521.478,674.714 523.448,675.867 C527.567,678.279 532.048,680.263 534.596,684.68 C534.75,686.195 533.953,687.333 532.796,687.999 C528.404,690.529 525.111,694.921 519.717,695.758 C509.578,690.322 499.18,685.645 487.769,683.363 C478.582,681.526 475.789,684.046 477.989,693.535 C479.341,699.361 481.58,704.955 483.653,710.58 C484.843,713.811 486.67,716.959 485.881,720.653 C484.077,724.016 480.683,725.684 477.908,727.986 C473.057,732.008 468.216,736.043 463.322,740.01 C461.675,741.346 460.076,743.729 457.387,741.623 C455.446,737.44 455.447,732.973 455.508,730.499 C455.59,734.637 454.319,740.585 453.066,746.537 C452.226,749.161 450.386,751.083 448.513,752.983 C444.08,757.48 438.956,761.219 434.567,765.777 C432.342,768.088 430.496,767.693 429.677,764.392 C429.081,761.985 428.243,759.601 428.875,757.062 C432.34,755.3 432.671,751.921 433.183,748.64 C433.399,747.671 433.804,746.768 434.256,745.89 C434.444,745.527 434.487,745.097 434.349,745.129 C433.891,745.235 434.296,745.826 433.946,746.077 C432.064,748.236 429.85,749.505 426.875,748.82 C422.747,742.577 418.49,736.394 417.197,728.776 C420.246,727.702 421.78,725.504 422.855,722.443 C425.658,714.46 428.173,706.369 431.339,698.519 C433.15,694.028 432.739,689.391 432.703,684.761 C432.686,682.661 431.626,681.783 429.495,682.147 C417.641,684.174 406.243,687.49 395.646,693.379 C392.42,695.171 393.315,698.17 392.6,700.735 C391.773,701.858 390.749,701.415 389.994,700.825 C385.008,696.933 380.129,692.905 375.361,688.748 C374.71,688.18 374.509,687.341 374.603,686.462 C376.843,681.362 381.629,679.224 386.228,676.364 C380.736,666.86 378.949,656.359 379.802,645.365 C380.044,642.25 378.692,640.743 375.764,640.229 C374.296,639.972 372.843,639.612 371.38,639.31 C364.498,637.886 363.841,638.284 364.606,645.435 C365.646,655.158 365.663,664.968 367.228,674.641 C367.546,676.609 367.627,678.611 366.811,680.523 C365.957,681.899 364.752,681.505 363.796,680.87 C358.302,677.22 352.298,674.281 347.646,669.445 C346.689,667.869 347.181,666.014 346.735,664.202 C346.382,665.296 345.835,666.07 344.989,666.633 C338.48,665.564 333.54,662.225 330.264,656.47 C332.521,649.12 336.734,642.678 339.95,635.77 C342.19,630.961 342.213,630.83 337.366,629.027 C311.455,619.387 287.383,606.44 266.433,588.281 C252.731,576.404 240.31,563.23 230.239,548.015 C229.482,546.77 228.597,545.613 227.778,544.41 C218.095,530.404 210.634,515.229 204.557,499.386 C202.936,495.16 200.568,493.329 196.116,493.346 C192.854,493.359 189.405,493.204 187.031,490.267" fill="#6E4100"/>
    </g>
    <path d="M324.046,848.853 C308.178,852.509 294.388,847.826 282.276,837.783 C278.683,834.804 276.526,834.35 272.303,836.951 C252.658,849.054 231.109,845.493 214.46,828.023 C207.89,821.129 202.346,813.443 196.906,805.66 C193.189,800.342 189.437,795.035 185.435,789.932 C167.794,767.432 171.241,742.921 194.663,726.597 C197.168,724.851 196.684,723.384 196.037,721.278 C189.5,700.004 183.003,678.717 176.476,657.44 C171.873,642.438 177.104,632.575 192.131,627.971 C211.825,621.939 231.517,615.901 251.21,609.866 C253.661,606.563 257.714,606.951 261.032,605.673 C263.956,604.547 266.91,603.416 270.041,602.912 C281.076,600.43 292.859,605.516 296.907,619.759 C298.174,624.216 299.328,628.718 301.026,633.045 C303.797,643.262 307.382,653.238 310.152,663.452 C312.419,670.81 314.691,678.172 316.874,685.706 C319.364,681.884 319.43,677.001 322.931,673.88 C329.065,675.766 334.094,679.189 337.753,684.529 C335.959,693.042 332.112,700.847 329.098,708.925 C327.122,714.223 326.912,719.032 328.704,724.388 C333.401,738.423 337.289,752.718 341.858,766.798 C342.942,770.138 343.481,773.567 343.456,777.107 C343.393,786.131 338.498,793.521 330.14,796.903 C324.115,799.341 317.741,800.714 311.627,802.869 C308.201,803.975 304.68,804.763 301.245,805.871 C298.384,806.794 296.283,808.329 295.515,811.349 C295.097,812.615 294.533,813.821 293.955,815.02 C290.477,822.235 290.451,822.276 297.282,826.651 C300.369,828.627 303.654,830.255 307.191,831.313 C310.093,831.862 312.428,833.37 314.014,835.81 C317.015,840.429 322.36,843.235 324.046,848.853" fill="#6E4100"/>
    <path d="M337.207,684.163 C332.534,680.86 327.862,677.558 323.189,674.255 C317.344,672.56 313.258,668.428 309.251,664.188 C305.904,653.904 302.448,643.653 299.952,633.115 C301.491,632.428 302.485,633.494 303.463,634.317 C312.456,641.881 321.904,648.877 330.931,656.398 C334.66,660.988 339.528,663.969 344.88,666.267 C346.536,666.544 347.186,667.97 348.104,669.09 C354.026,672.987 359.947,676.883 365.869,680.78 C369.898,681.401 372.862,683.564 374.924,687.033 C380.626,691.656 386.327,696.279 392.029,700.903 C397.076,702.148 399.545,706.61 402.912,709.863 C407.539,714.331 411.475,719.459 415.21,724.708 C416.153,726.034 417.257,727.345 417.09,729.163 C420.959,735.208 424.062,741.656 427.09,748.145 C429.608,750.742 431.072,753.585 429.2,757.204 C429.965,760.34 430.731,763.475 431.642,767.209 C438.102,759.919 446.056,754.707 451.821,747.207 C453.964,745.48 455.264,742.69 458.292,742.079 C467.235,735.04 476.178,728 485.121,720.961 C485.952,719.928 486.314,718.56 487.374,717.699 C497.174,709.746 507.453,702.456 518.07,695.641 C518.625,695.285 519.381,695.496 519.994,695.212 C524.846,691.961 529.947,689.067 534.375,685.207 C535.073,684.012 535.862,682.945 537.453,682.992 C543.867,680.223 549.183,675.641 555.213,672.24 C556.425,671.557 555.973,670.105 556.783,669.272 C558.384,669.606 558.053,667.415 559.329,667.324 C559.932,668.093 560.423,669.005 561.651,668.082 C566.12,664.721 571.226,662.233 575.195,658.187 C581.562,651.54 589.404,646.703 596.465,640.903 C621.82,620.077 644.246,596.563 662.972,569.581 C665.062,566.57 667.265,563.657 669.616,560.851 C670.314,559.384 671.643,558.276 672.022,556.627 C686.146,537.596 697.578,517.093 705.747,494.817 C706.318,493.261 707.143,492.384 708.835,492.022 C713.402,491.045 717.564,488.935 721.8,487.051 C711.753,530.619 690.059,568.188 662.194,602.544 C638.558,631.686 610.565,656.084 579.939,677.58 C579.27,678.051 578.673,678.625 578.042,679.15 C573.726,683.628 568.829,687.226 562.849,689.183 C558.996,690.999 555.467,693.316 552.225,696.073 C546.498,701.732 539.343,705.435 532.8,709.935 C515.378,721.918 498.516,734.616 482.063,747.873 C480.184,749.145 478.396,750.538 476.73,752.086 C466.191,761.46 455.249,770.395 445.654,780.791 C432.689,792.64 421.829,806.232 412.006,820.753 C405.85,829.855 398.646,838.154 390.633,845.716 C386.934,848.406 383.526,851.479 379.744,854.059 C378.273,855.062 376.871,856.284 374.895,856.127 C371.834,857.413 368.829,858.855 365.704,859.961 C352.138,864.763 340.205,861.15 329.25,852.698 C327.543,851.381 325.78,850.134 324.044,848.854 C319.836,844.095 315.508,839.434 311.488,834.521 C310.268,833.03 308.409,833.579 307.309,832.339 C305.228,827.178 301.072,823.371 298.361,818.621 C296.966,816.177 295.2,813.925 294.509,811.12 C294.784,807.337 296.829,805.458 300.567,804.776 C304.071,804.137 307.472,802.931 310.919,801.974 C313.051,802.593 313.818,804.555 314.867,806.158 C319.451,813.163 324.292,819.974 329.688,826.38 C333.568,830.316 337.106,834.613 341.762,837.723 C351.508,845.139 360.381,844.274 370.613,834.889 C376.74,831.518 380.78,825.848 385.713,821.16 C393.595,812.159 400.353,802.329 406.67,792.216 C411.206,784.955 412.406,776.779 411.782,768.313 C410.794,760.887 408.731,754.112 404.514,747.542 C400.994,742.058 398.449,735.895 394.084,730.859 C389.738,725.844 385.162,721.068 379.999,716.884 C376.615,713.037 372.671,709.817 368.588,706.755 C362.84,702.144 356.921,697.779 350.524,694.094 C346.479,690.257 340.599,688.875 337.207,684.163" fill="#FF96AB"/>
    <g>
      <path d="M390.002,844.978 C402.571,832.561 412.496,818.059 422.757,803.794 C429.066,795.021 436.848,787.488 444.696,780.074 C447.005,780.385 447.768,782.423 448.992,783.936 C452.945,788.819 458.625,789.25 461.843,784.012 C465.477,778.094 470.614,775.718 476.859,773.74 C490.64,769.377 504.151,764.178 517.763,759.296 C525.859,756.393 526.908,757.307 525.531,765.76 C520.934,793.981 516.129,822.166 510.73,850.247 C510.269,852.643 510.263,855.286 508.046,857.014 C481.762,857.465 455.469,857.64 429.198,858.504 C418.558,858.854 407.921,858.916 397.285,859.2 C395.614,859.244 393.955,859.197 392.414,859.976 C389.504,855.315 388.802,850.299 390.002,844.978" fill="#FFCF71"/>
      <path d="M508.046,857.014 C514.506,824.325 519.987,791.469 525.374,758.112 C509.013,763.944 493.399,769.989 477.451,774.962 C470.87,777.013 465.847,779.502 462.249,785.712 C459.236,790.911 452.671,790.533 448.733,785.762 C447.258,783.974 446.034,781.977 444.696,780.075 C454.371,769.526 465.423,760.475 476.191,751.117 C477.556,750.863 477.905,751.939 478.167,752.827 C478.838,755.1 480.25,754.879 482.038,754.317 C488.507,752.281 494.748,749.605 501.209,747.548 C502.205,747.231 503.858,746.936 503.209,745.35 C502.641,743.964 501.217,744.543 500.151,744.907 C495.457,746.51 490.805,748.293 485.85,748.902 C484.112,749.115 481.848,750.121 481.154,747.192 C503.019,729.006 526.193,712.619 549.986,697.083 C550.663,696.641 551.476,696.406 552.225,696.074 C549.356,714.452 546.528,732.838 543.602,751.208 C541.877,762.031 540.118,772.852 538.142,783.632 C536.923,790.281 538.937,796.523 540.194,802.806 C543.808,820.863 546.975,839.049 553.987,856.249 C555.845,860.806 553.935,865.295 549.862,867.164 C545.505,869.163 540.883,867.52 538.636,862.842 C535.245,855.781 533.311,848.202 531.224,840.688 C530.743,838.958 530.257,837.228 529.544,834.678 C527.953,842.547 526.424,849.509 525.17,856.52 C524.303,861.37 521.895,864.681 516.825,864.846 C511.725,865.011 509.018,861.821 508.046,857.014" fill="#6E4100"/>
      <path d="M713.79,669.095 C719.93,669.338 725.653,670.127 730.363,673.472 C733.971,676.034 734.783,674.765 735.948,671.358 C745.467,643.536 755.122,615.761 764.757,587.979 C767.341,580.525 770.416,579.348 776.928,583.69 C790.128,592.49 801.337,603.202 808.51,617.643 C811.451,623.564 812.793,629.85 812.596,636.42 C812.215,649.09 805.732,657.573 794.325,662.605 C787.101,665.793 779.524,667.509 771.692,668.24 C768.42,668.546 765.54,667.958 764.619,664.322 C763.702,660.707 765.807,658.754 768.967,657.623 C769.593,657.399 770.253,657.21 770.811,656.864 C777.528,652.698 783.401,647.735 783.507,639.057 C783.573,633.641 774.451,624.983 767.706,623.053 C764.51,622.138 765.016,624.906 764.561,626.199 C758.003,644.846 751.551,663.532 745.144,682.232 C743.374,687.398 741.47,692.507 740.258,697.879 C738.354,706.31 732.022,710.556 724.301,712.737 C715.072,715.344 705.836,714.814 696.946,711.064 C682.392,704.926 679.415,689.51 690.595,678.218 C697.071,671.678 705.318,669.525 713.79,669.095" fill="#FF7164"/>
      <path d="M17.156,405.221 C30.617,405.415 42.14,406.778 53.006,411.549 C67.526,417.925 76.4,430.346 75.024,443.453 C73.605,456.971 65.47,466.948 55.983,475.88 C53.927,477.816 51.244,477.447 49.173,475.489 C47.109,473.537 46.884,471.139 48.328,468.673 C51.574,463.128 52.686,457.241 51.302,450.923 C49.976,444.867 47.043,442.043 40.978,441.047 C39.828,440.858 38.666,440.559 37.517,440.591 C33.195,440.71 27.738,439.963 25.122,442.859 C22.89,445.332 26.611,449.728 27.874,453.184 C34.953,472.55 42.183,491.86 49.364,511.188 C49.654,511.968 49.852,512.817 50.299,513.499 C57.215,524.047 54.281,533.485 46.888,542.25 C41.147,549.055 33.857,553.555 25.13,555.559 C11.336,558.727 -0.293,548.134 1.404,533.986 C3.116,519.72 14.355,507.365 28.504,505.048 C33.404,504.245 33.316,502.7 31.806,498.735 C21.565,471.855 11.554,444.887 1.487,417.94 C-1.615,409.636 -0.122,406.989 8.426,405.884 C11.882,405.437 15.384,405.349 17.156,405.221" fill="#FF7164"/>
    </g>
    <path d="M562.849,689.183 C567.913,685.839 572.978,682.495 578.042,679.15 C584.835,719.5 593.62,759.399 605,798.716 C609.985,815.939 615.294,833.058 621.133,850.012 C621.729,851.741 622.462,853.437 622.887,855.206 C624.025,859.944 621.739,864.133 617.382,865.547 C613.065,866.948 608.617,864.98 607.005,860.297 C602.738,847.9 598.579,835.459 594.705,822.934 C581.134,779.058 570.421,734.492 562.849,689.183" fill="#6E4100"/>
    <g>
      <path d="M270.314,603.924 C263.945,605.905 257.575,607.886 251.208,609.867 C244.669,601.304 237.892,592.91 231.631,584.148 C211.772,556.355 196.154,526.464 187.55,493.198 C187.303,492.24 187.201,491.245 187.031,490.267 C189.938,490.905 192.897,492.247 195.741,492.037 C201.873,491.582 204.232,494.567 206.198,499.92 C211.919,515.499 219.706,530.1 228.921,543.921 C228.543,545.89 230.31,546.91 230.929,548.442 C242.295,566.122 253.896,583.621 268.211,599.129 C269.439,600.459 270.692,601.854 270.314,603.924" fill="#FF96AB"/>
      <path d="M374.895,856.127 C375.121,857.419 375.302,858.72 375.58,860.001 C376.723,865.258 379.623,868.073 384.03,867.907 C389.05,867.719 391.761,864.885 392.413,859.978 C391.609,854.98 390.806,849.979 390.002,844.978 C384.966,848.694 379.931,852.41 374.895,856.127" fill="#6E4300"/>
    </g>
    <path d="M692.154,482.202 C675.014,533.715 643.397,573.287 595.308,599.11 C565.751,614.981 533.836,623.126 500.729,627.145 C469.846,630.894 438.955,630.943 408.088,627.112 C360.855,621.249 316.877,607.032 279.777,575.869 C254.86,554.939 236.382,529.221 224.091,499.077 C223.371,495.912 225.499,496.805 226.877,497.312 C229.998,498.461 232.956,500.042 236.107,501.117 C252.003,506.542 268.264,509.338 283.484,500.302 C301.663,489.508 314.406,473.859 315.126,451.871 C315.631,436.442 308.64,422.808 299.189,410.728 C293.245,403.131 285.972,397.179 276.571,394.187 C256.481,387.792 238.879,392.208 223.403,406.219 C217.537,411.529 212.891,417.765 208.891,424.545 C208.02,426.022 207.609,428.126 205.236,428.14 C199.421,391.049 202.687,354.557 212.009,318.363 C222.689,276.897 239.863,238.726 268.17,206.165 C297.873,171.999 334.964,149.203 377.934,135.567 C381.229,134.521 381.73,135.84 382.449,138.563 C394.272,183.331 416.843,221.921 449.64,254.532 C458.97,263.809 468.742,272.616 479.945,279.654 C484.602,282.58 489.483,285.029 494.825,286.515 C509.549,290.613 521.668,285.051 528.038,271.111 C533.419,259.335 534.196,246.717 534.583,234.051 C534.692,230.475 534.599,226.894 535.087,223.177 C541.229,230.534 546.773,238.104 553.026,245.107 C588.376,284.698 632.529,307.737 684.91,315.256 C697.57,317.073 697.329,316.975 700.331,329.258 C709.372,366.243 709.101,403.399 702.906,440.711 C702.662,442.185 702.23,443.628 701.886,445.085 C699.253,444.457 699.757,442.02 699.275,440.284 C696.345,429.738 691.901,419.943 685.204,411.238 C669.771,391.178 643.959,385.272 621.64,397.236 C600.469,408.583 588.999,427.09 586.661,450.526 C584.833,468.854 592.861,483.948 608,494.165 C622.682,504.073 639.282,507.999 657.059,504.858 C665.487,503.369 672.777,499.558 678.678,493.211 C681.967,489.674 685.532,486.402 688.825,482.861 C689.522,482.112 690.491,479.417 692.154,482.202" fill="#FEF8EA"/>
    <path d="M311.124,59.124 C316.107,57.355 321.273,58.285 326.34,58.289 C331.466,58.293 334.812,56.178 335.76,51.275 C336.456,47.678 339.275,46.578 341.68,45.054 C355.051,36.588 369.835,31.578 385.062,27.727 C418.699,19.22 452.918,15.413 487.496,17.6 C518.735,19.575 548.772,27.771 577.899,39.162 C626.297,58.09 668.268,86.549 703.75,124.51 C741.222,164.601 764.489,211.618 771.793,266.165 C777.115,305.912 772.513,344.81 760.587,382.953 C760.294,383.889 759.888,384.789 759.543,385.682 C757.8,385.92 757.639,384.4 757.107,383.554 C750.378,372.855 740.516,367.999 728.115,368.248 C724.552,368.32 723.334,367.489 723.014,363.692 C721.797,349.262 718.916,335.075 715.766,320.955 C715.351,319.096 714.697,317.599 716.836,316.238 C720.488,313.914 720.977,310.222 719.772,306.509 C718.4,302.281 714.876,301.216 710.668,301.006 C680.767,299.512 651.958,293.297 625.143,279.653 C580.608,256.993 548.976,222.24 529.638,176.241 C527.978,172.292 525.908,169.156 521.083,169.168 C515.767,169.18 512.412,172.863 513.038,178.857 C513.971,187.779 515.569,196.632 516.506,205.555 C518.212,221.809 518.959,238.078 515.96,254.299 C512.753,271.652 505.354,275.248 490.32,266.178 C474.465,256.613 461.547,243.541 449.47,229.751 C424.135,200.823 406.705,167.651 397.697,130.186 C396.534,125.347 395.811,120.397 395.021,115.477 C394.226,110.527 391.025,107.3 386.566,107.205 C382.054,107.109 378.503,110.13 378.228,115.28 C378.044,118.735 375.768,118.713 373.658,119.37 C348.063,127.34 324.041,138.588 301.859,153.701 C289.868,161.872 278.788,171.142 268.358,181.21 C255.685,175.725 247.018,166.061 241.21,153.931 C235.978,143.004 233.893,131.211 233.817,119.068 C233.792,115.163 235.066,111.989 237.793,109.214 C255.861,90.829 275.576,74.662 298.952,63.35 C301.357,62.186 303.841,61.278 306.322,60.338 C307.863,59.703 309.678,60.146 311.124,59.124" fill="#DBA76F"/>
    <path d="M934.062,390.285 C915.772,400.325 896.384,406.77 875.467,408.278 C838.248,410.961 809.064,395.633 785.2,368.206 C783.344,366.073 783.05,364.207 783.68,361.461 C789.901,334.347 791.887,306.802 789.84,279.147 C785.573,221.483 764.551,170.43 727.47,126.034 C704.565,98.61 677.924,75.42 647.91,56.071 C647.09,55.542 646.349,54.892 645.124,53.957 C652.358,49.582 659.663,46.317 667.165,43.45 C667.801,43.686 668.46,43.769 669.128,43.684 C698.665,39.925 726.857,45.414 753.963,56.809 C785.383,70.016 810.583,90.991 829.004,119.759 C841.679,139.553 849.513,161.222 852.346,184.588 C855.034,206.762 852.969,228.792 850.042,250.798 C847.56,269.461 845.525,288.188 846.453,307.057 C847.773,333.874 859.214,355.355 881.221,370.921 C894.531,380.336 909.432,385.776 925.583,387.937 C928.472,388.323 931.633,388.089 934.062,390.285" fill="#DBA76F"/>
    <path d="M692.154,482.202 C690.357,481.049 690.422,482.953 689.784,483.664 C680.158,494.394 670.377,504.813 654.87,506.722 C641.803,508.33 629.43,505.821 617.434,500.864 C596.774,492.326 584.171,473.432 585.208,451.196 C585.816,438.161 590.713,426.257 598.405,415.708 C607.51,403.22 619.359,394.602 634.648,391.066 C653.524,386.699 674.435,394.523 686.04,410.031 C693.94,420.589 698.849,432.386 701.886,445.085 C699.745,457.747 696.652,470.159 692.154,482.202" fill="#FFD5BA"/>
    <path d="M205.236,428.14 C211.415,417 218.91,407.002 229.459,399.535 C249.709,385.2 277.42,386.668 295.364,404.3 C308.157,416.87 315.657,432.883 316.692,450.836 C317.318,461.699 312.956,471.872 306.324,480.863 C296.778,493.807 285.628,504.361 268.902,506.661 C254.647,508.622 241.258,505.219 228.33,499.355 C227.186,498.836 225.661,495.918 224.091,499.077 C215.752,480.655 210.735,461.25 207.126,441.441 C206.324,437.038 205.857,432.575 205.236,428.14" fill="#FFD5BA"/>
    <path d="M306.997,61.046 C280.088,72.642 257.672,90.414 237.588,111.425 C235.654,113.449 235.228,115.74 235.255,118.273 C235.529,143.91 243.293,165.695 266.72,179.436 C267.384,179.826 267.816,180.611 268.357,181.211 C263.291,186.553 258.224,191.897 253.157,197.241 C243.745,197.385 235.304,193.633 226.778,190.435 C217.247,186.859 208.354,181.93 199.693,176.59 C195.732,174.147 194.997,174.34 192.966,178.675 C179.217,208.02 170.216,238.658 167.39,271.06 C164.699,301.91 167.386,332.201 175.775,362.003 C176.342,364.02 177.53,366.066 176.227,368.249 C172.963,369.429 169.662,370.514 166.447,371.814 C163.17,373.139 160.682,375.68 157.64,378.129 C152.21,365.785 148.58,353.121 146.19,340.149 C130.623,255.638 153.94,182.146 210.189,118.492 C232.074,93.725 258.269,74.535 289.968,63.755 C294.829,62.102 299.726,60.419 304.934,60.11 C305.903,59.803 307.039,59.125 306.997,61.046" fill="#FEFEFE"/>
    <path d="M934.062,390.285 C903.824,387.742 877.972,376.716 859.715,351.381 C849.671,337.445 845.38,321.601 844.885,304.547 C844.283,283.832 846.813,263.358 849.593,242.928 C854.359,207.915 853.787,173.464 838.694,140.701 C816.391,92.287 778.209,62.886 727.271,49.328 C709.331,44.553 690.986,43.024 672.434,44.09 C670.676,44.191 668.777,44.827 667.166,43.45 C730.879,23.789 815.833,48.274 854.331,116.022 C871.472,146.184 876.631,178.617 872.546,212.808 C869.783,235.925 865.6,258.829 863.706,282.093 C858.84,341.849 895.654,376.203 938.314,387.459 C937.382,389.27 935.706,389.756 934.062,390.285" fill="#FEFEFE"/>
    <path d="M176.227,368.249 C167.254,339.507 163.67,310.062 165.291,280.04 C167.281,243.171 176.874,208.26 193.219,175.182 C194,173.602 194.499,171.555 197.099,173.295 C214.277,184.79 233.058,192.565 253.156,197.241 C245.324,207.777 237.255,218.136 230.442,229.405 C209.689,263.73 197.17,301.035 190.149,340.327 C188.776,348.008 187.666,355.749 186.803,363.503 C186.387,367.234 184.978,368.768 181.209,368.212 C179.585,367.972 177.89,368.222 176.227,368.249" fill="#DBA76F"/>
    <path d="M417.09,729.163 C409.749,718.845 401.526,709.309 392.029,700.903 C389.819,695.411 392.987,693.079 397.382,690.839 C408.013,685.421 419.369,682.559 430.977,680.382 C433.194,679.966 433.986,680.724 434.012,682.915 C434.082,688.865 434.453,694.712 432.061,700.52 C428.78,708.483 425.959,716.659 423.424,724.893 C422.321,728.479 420.555,729.739 417.09,729.163" fill="#FF7164"/>
    <path d="M519.994,695.212 C508.376,703.806 496.235,711.692 485.12,720.963 C484.249,713.432 480.885,706.658 478.221,699.741 C476.001,693.979 476.618,688.361 476.804,682.599 C476.868,680.604 477.768,680.033 479.678,680.406 C493.911,683.19 507.981,686.392 519.994,695.212" fill="#FF7164"/>
    <path d="M742.405,438.834 C739.259,429.939 733.189,424.377 725.06,420.844 C723.23,420.048 722.765,418.926 722.869,417.012 C723.39,407.394 723.864,397.771 724.139,388.143 C724.207,385.733 725.01,385.088 727.295,384.954 C735.052,384.498 740.978,387.344 743.74,394.46 C749.509,409.323 748.74,424.214 742.405,438.834" fill="#FEF8EA"/>
    <path d="M374.924,687.033 C371.905,684.949 368.886,682.866 365.868,680.781 C364.984,668.536 363.992,656.299 363.249,644.047 C362.755,635.89 362.913,635.88 370.997,637.801 C374.383,638.605 378.732,638.419 380.887,640.501 C383.125,642.662 381.05,647.011 381.07,650.408 C381.118,658.679 382.518,666.645 386.453,673.954 C387.717,676.304 387.25,677.249 385.192,678.544 C381.422,680.915 377.459,683.135 374.924,687.033" fill="#FFCF71"/>
    <path d="M166.454,435.588 C162.818,421.339 162.164,408.573 166.57,395.96 C169.25,388.289 175.025,384.75 182.537,384.94 C184.928,385.001 185.615,385.749 185.648,388.099 C185.772,397.221 185.852,406.351 186.895,415.435 C187.04,416.702 187.374,417.957 185.286,418.287 C175.9,419.767 169.878,425.392 166.454,435.588" fill="#FEF8EA"/>
    <path d="M537.453,682.992 C536.693,684.101 535.795,685.016 534.375,685.206 C530.219,681.308 525.497,678.226 520.412,675.704 C518.529,674.77 517.443,674.058 518.966,671.667 C524.352,663.213 526.759,653.732 527.591,643.859 C527.845,640.844 528.911,639.5 531.951,639.053 C536.04,638.451 540.052,637.328 544.933,636.243 C542.399,652.082 539.926,667.537 537.453,682.992" fill="#FFCF70"/>
    <path d="M398.09,650.549 C398.09,649.718 398.185,648.875 398.075,648.059 C397.503,643.819 399.137,643.267 403.354,643.23 C413.657,643.141 419.386,647.279 422.13,657.418 C424.069,664.582 424.974,664.29 417.436,666.057 C414.045,666.852 410.622,667.641 407.366,668.843 C404.137,670.036 402.495,668.849 401.139,666.055 C399.307,662.281 397.978,656.4 398.09,650.549" fill="#FEFEFE"/>
    <path d="M473.517,646.277 C473.642,646.943 473.737,647.125 473.693,647.263 C469.732,659.817 469.302,660.133 456.241,660.133 C454.91,660.133 453.579,660.133 452.247,660.133 C441.427,660.133 440.759,659.583 436.718,649.664 C435.595,646.908 436.094,646.104 438.993,646.275 C450.456,646.952 461.926,646.606 473.517,646.277" fill="#FEF7E9"/>
    <path d="M510.498,645.493 C509.498,652.625 507.393,659.142 503.284,664.97 C501.763,667.128 500.29,668.033 497.559,667.164 C493.647,665.919 487.833,666.341 486.077,663.805 C484.221,661.123 489.119,656.778 489.593,652.788 C490.441,645.662 494.812,643.867 501.092,644.035 C503.378,644.096 505.683,643.49 507.978,643.173 C509.915,642.906 511.392,643.075 510.498,645.493" fill="#FEFDFD"/>
    <path d="M186.016,435.322 C189.021,434.849 189.086,436.082 189.293,437.256 C191.399,449.177 193.571,461.082 196.966,472.728 C197.751,475.42 196.16,475.492 194.229,474.751 C192.137,473.948 190.588,472.444 189.332,470.652 C183.348,462.114 181.195,452.556 182.327,442.315 C182.66,439.299 183.389,435.946 186.016,435.322" fill="#FF95AB"/>
    <path d="M713.129,472.006 C716.191,460.374 718.574,449.262 720.353,437.783 C723.65,438.967 725.07,441.277 725.738,444.108 C727.986,453.629 722.367,466.508 713.129,472.006" fill="#FF95A9"/>
    <path d="M460.05,682.997 C459.231,685.427 461.903,689.507 456.429,689.946 C452.691,690.246 450.21,689.902 450.899,685.252 C451.037,684.321 450.525,683.311 450.52,682.337 C450.512,680.613 449.464,678.221 451.423,677.398 C453.815,676.394 456.841,676.354 459.149,677.399 C461.204,678.33 459.623,681.007 460.05,682.997" fill="#FD7062"/>
    <path d="M458.292,742.079 C456.462,744.2 454.932,746.7 451.822,747.206 C452.918,740.757 454.015,734.307 455.111,727.857 C455.352,727.864 455.592,727.871 455.833,727.878 C456.652,732.612 457.472,737.345 458.292,742.079" fill="#FAF8F6"/>
    <path d="M429.2,757.204 C429.376,753.98 427.566,751.218 427.09,748.145 C429.906,748.055 432.045,746.582 434.011,744.756 C434.836,745.882 434.699,747.054 434.179,748.245 C432.99,751.493 435.767,756.946 429.2,757.204" fill="#FF7163"/>
    <path d="M348.104,669.09 C346.649,668.582 345.28,667.975 344.881,666.264 C345.667,664.935 345.572,663.025 348.104,661.993 C348.104,664.602 348.104,666.846 348.104,669.09" fill="#EDE5E0"/>
    <path d="M559.329,667.324 C558.958,668.362 559.484,669.824 558.073,670.357 C557.21,670.683 557.089,669.786 556.784,669.268 C557.391,667.014 556.426,664.319 558.815,662.238 C559.004,664.106 559.166,665.715 559.329,667.324" fill="#F1ECE8"/>
    <path d="M306.997,61.046 C306.309,60.734 305.622,60.422 304.934,60.111 C306.85,58.86 309.015,59.167 311.124,59.125 C310.081,60.48 308.432,60.532 306.997,61.046" fill="#F6ECE0"/>
    <path d="M230.897,547.204 C230.616,547.531 230.334,547.857 230.052,548.183 C229.143,546.905 227.268,545.883 228.922,543.923 C229.58,545.015 230.238,546.11 230.897,547.204" fill="#FF96AB"/>
    <path d="M434.179,748.245 C434.123,747.083 434.067,745.921 434.011,744.758 C434.175,744.219 434.584,743.255 434.963,744.239 C435.455,745.518 435.244,747.065 434.179,748.245" fill="#DF664D"/>
    <path d="M257.118,625.973 C261.833,624.424 266.524,622.797 271.269,621.346 C277.181,619.539 278.063,620.025 279.843,625.854 C285.181,643.331 290.487,660.817 295.804,678.301 C305.326,709.615 314.856,740.927 324.362,772.245 C326.384,778.906 326.114,779.378 319.497,781.419 C312.192,783.672 304.801,785.674 297.59,788.193 C292.067,790.121 286.803,791.535 281.637,787.089 C284.061,782.668 286.348,777.749 285.436,771.968 C283.436,759.293 274.028,752.206 261.313,753.682 C256.383,754.254 251.733,755.955 246.634,757.108 C247.022,750.491 247.817,744.221 246.475,737.987 C243.049,722.076 233.249,714.791 217.353,717.34 C212.248,718.159 211.308,716.232 211.083,712.238 C214.741,702.352 220.378,693.448 225.305,684.218 C234.87,666.302 244.211,648.263 254.041,630.487 C254.932,628.876 255.812,627.287 257.118,625.973" fill="#FF96AB"/>
    <path d="M230.549,747.881 C230.183,754.42 228.604,760.735 227.472,767.116 C226.783,771.003 226.552,774.819 230.07,777.633 C233.534,780.404 237.184,779.606 240.887,778.076 C247.632,775.29 254.18,771.945 261.465,770.653 C264.102,770.186 266.786,769.466 268.341,772.712 C269.819,775.798 267.588,777.513 265.725,778.977 C262.466,781.54 258.872,783.672 255.48,786.071 C252.906,787.891 250.282,789.682 247.941,791.777 C244.748,794.634 243.895,798.312 245.885,802.162 C247.901,806.061 251.4,807.287 255.613,806.319 C262.097,804.83 268.556,803.303 275.307,803.779 C278.127,803.978 279.448,804.784 277.709,807.649 C270.765,819.089 261.595,827.099 247.35,827.091 C240.272,827.088 234.619,823.695 229.557,819.132 C223.708,813.859 219.011,807.6 214.424,801.251 C208.968,793.7 203.557,786.116 198.018,778.625 C186.621,763.211 189.456,748.911 205.966,739.239 C209.986,736.883 214.216,734.97 218.822,733.997 C226.023,732.478 229.168,734.643 230.124,741.936 C230.382,743.902 230.414,745.898 230.549,747.881" fill="#FEF8EA"/>
    <path d="M337.207,684.163 C342.019,686.775 346.721,689.558 350.946,693.075 C353.796,698.403 353.31,704.392 354.094,710.087 C355.549,720.643 356.459,731.301 358.542,741.739 C360.365,750.88 359.113,759.571 356.966,768.351 C352.797,785.396 347.882,802.174 338.464,817.201 C336.045,821.062 333.91,825.44 329.042,827.073 C321.865,819.527 316.247,810.855 310.919,801.974 C316.577,800.116 322.24,798.271 327.893,796.397 C339.228,792.641 344.848,782.233 341.448,770.728 C336.603,754.329 331.597,737.977 326.491,721.658 C325.45,718.33 325.401,715.402 326.703,712.113 C330.367,702.861 333.727,693.488 337.207,684.163" fill="#FEFEFE"/>
    <path d="M257.118,625.973 C254.073,634.62 248.939,642.228 244.849,650.352 C238.587,662.791 231.694,674.912 225.122,687.195 C221.207,694.51 217.391,701.878 213.537,709.225 C212.922,710.399 212.432,711.666 211.083,712.237 C208.969,706.7 207.214,701.053 205.912,695.267 C205.877,690.862 208.54,687.476 210.459,683.893 C218.438,668.992 226.436,654.103 234.264,639.122 C235.789,636.205 237.217,633.151 240.061,631.166 C245.627,629.043 251.306,627.287 257.118,625.973" fill="#FFCCD6"/>
    <path d="M240.061,631.166 C228.678,652.533 217.296,673.901 205.913,695.268 C204.415,690.51 202.919,685.754 201.422,680.997 C201.666,677.214 203.725,674.155 205.47,670.987 C211.846,659.408 217.976,647.699 224.109,635.991 C229.426,634.383 234.743,632.774 240.061,631.166" fill="#FF96AB"/>
    <path d="M224.109,635.991 C225.477,637.007 224.635,638.056 224.105,639.039 C216.553,653.03 208.985,667.012 201.422,680.997 C199.474,674.783 197.11,668.69 195.957,662.243 C198.544,654.619 202.544,647.753 207.216,641.246 C212.688,638.984 218.379,637.426 224.109,635.991" fill="#FFCCD6"/>
    <path d="M294.509,811.12 C299.126,817.687 303.757,824.244 308.346,830.83 C309.191,832.042 307.891,831.997 307.305,832.338 C301.016,830.959 295.961,827.364 291.056,823.425 C289.259,821.982 289.212,820.905 290.499,818.985 C292.126,816.558 293.198,813.759 294.509,811.12" fill="#FDFDFC"/>
    <path d="M207.216,641.246 C204.243,648.663 200.336,655.579 195.957,662.243 C193.942,658.399 193.27,654.11 191.912,650.048 C190.961,647.201 192.208,645.543 194.815,644.758 C198.928,643.52 203.08,642.41 207.216,641.246" fill="#FF95AB"/>
    <path d="M329.042,827.073 C342.135,813.397 347.808,796.034 352.936,778.471 C355.163,770.845 357.37,763.094 358.294,755.249 C358.914,749.987 357.322,744.45 356.616,739.049 C354.617,723.738 352.22,708.476 350.946,693.075 C357.623,696.658 363.695,701.091 369.32,706.151 C371.73,709.59 371.822,713.669 372.301,717.583 C376.224,749.584 381.397,781.399 386.29,813.257 C386.736,816.157 387.892,819.115 386.254,822.029 C381.71,826.971 377.92,832.763 371.269,835.332 C369.838,834.386 369.767,832.798 369.518,831.365 C367.706,820.967 365.793,810.584 364.704,800.756 C360.213,812.986 354.45,825.17 345.71,835.761 C344.569,837.143 343.264,838.539 341.176,838.475 C336.162,835.705 332.62,831.369 329.042,827.073" fill="#6E4100"/>
    <path d="M386.254,822.029 C379.967,783.497 373.945,744.926 369.32,706.151 C373.464,708.931 377.7,711.612 380.201,716.175 C384.78,720.079 387.492,725.547 391.634,729.832 C393.117,731.366 392.305,733.278 391.521,734.962 C389.775,738.716 387.778,742.347 386.003,746.086 C382.935,752.548 384.399,756.428 391.176,758.899 C396.772,760.939 402.397,762.913 408.001,764.939 C409.843,765.606 411.916,765.909 412.96,767.915 C413.966,778.788 411.184,788.374 404.766,797.415 C398.812,805.801 393.384,814.538 386.254,822.029" fill="#FFCF71"/>
    <path d="M412.96,767.915 C405.29,765.227 397.594,762.61 389.957,759.831 C383.302,757.409 381.39,752.736 384.415,746.477 C386.653,741.844 390.45,737.427 390.947,732.643 C391.443,727.868 385.04,725.317 383.032,720.802 C382.304,719.164 381.156,717.713 380.2,716.176 C381.545,715.901 382.326,716.766 383.169,717.585 C389.834,724.053 396.618,730.525 401.309,738.572 C406.636,747.709 412.685,756.71 412.96,767.915" fill="#6E4100"/>
    <path d="M481.154,747.192 C484.644,749.339 487.926,747.168 491.17,746.476 C494.717,745.719 498.181,744.375 501.524,742.926 C504.353,741.701 504.577,744.091 505.448,745.392 C506.721,747.294 504.852,747.593 503.712,748.002 C496.047,750.756 488.388,753.529 480.673,756.137 C475.555,757.867 478.403,752.163 476.19,751.117 C477.846,749.809 479.5,748.5 481.154,747.192" fill="#FF7063"/>
    <path d="M532.176,715.246 C530.597,725.701 529.019,736.155 527.217,748.084 C523.827,742.795 521.245,738.695 518.583,734.647 C517.452,732.926 518.457,731.921 519.557,730.818 C524.406,725.955 528.176,720.334 531.178,714.178 C532.077,714.005 532.623,714.161 532.176,715.246" fill="#FECF70"/>
    <path d="M532.176,715.246 C531.844,714.89 531.511,714.534 531.178,714.178 C531.553,713.149 531.927,712.119 532.565,710.363 C533.232,712.586 533.132,713.946 532.176,715.246" fill="#E2B35A"/>
    <path d="M455.652,548.659 C425.812,548.654 402.179,531.435 393.848,503.633 C392.149,497.961 393.509,494.287 397.795,492.97 C402.271,491.595 405.299,493.643 407.156,499.303 C417.298,530.211 451.106,544.08 479.971,529.043 C491.738,522.913 498.618,512.816 502.085,500.234 C503.632,494.623 506.638,492.185 511.054,493.216 C515.344,494.218 517.098,498.092 515.785,503.666 C509.927,528.529 488.135,546.802 462.622,548.248 C460.298,548.379 457.975,548.519 455.652,548.659" fill="#6E4100"/>
    <path d="M574.858,413.996 C573.661,413.996 573.484,414.034 573.329,413.991 C565.832,411.863 559.333,412.599 553.712,418.973 C551.22,421.8 547.234,421.561 544.555,418.125 C542.169,415.066 543.04,411.691 547.287,409.033 C551.233,406.564 551.508,404.833 548.099,401.254 C542.989,395.888 540.048,389.098 538.888,381.68 C538.062,376.402 540.499,372.457 545.151,371.394 C549.666,370.363 553.9,373.05 555.101,378.125 C556.648,384.668 559.463,390.326 565.104,394.255 C571.952,399.025 578.792,398.026 584.009,391.499 C586.969,387.796 588.51,383.405 589.939,378.957 C591.674,373.559 595.666,371.083 600.459,372.322 C605.047,373.508 607.577,378.085 606.017,383.469 C601.79,398.053 594.766,410.221 578.28,413.563 C576.823,413.859 575.323,413.939 574.858,413.996" fill="#6E4100"/>
    <path d="M334.096,413.997 C328.341,411.05 323.196,413.829 318.061,418.805 C314.723,422.04 310.423,421.186 308.506,418.005 C306.097,414.007 307.666,410.988 311.406,408.911 C314.774,407.04 315.114,405.399 312.339,402.291 C307.511,396.885 304.796,390.205 303.068,383.192 C301.809,378.087 304.13,373.635 308.488,372.373 C313.259,370.992 317.447,373.448 319.149,378.733 C320.838,383.977 322.617,389.15 326.691,393.142 C331.454,397.81 336.792,398.538 342.584,395.19 C348.73,391.638 352.023,386.046 353.779,379.358 C355.418,373.121 359.332,370.196 364.238,371.452 C369.222,372.728 371.362,377.123 370.049,383.389 C366.4,400.811 351.478,413.99 334.096,413.997" fill="#6E4100"/>
    <path d="M335.673,194.205 C344.988,194.503 352.424,198.068 356.808,206.655 C358.667,210.297 358.645,213.794 354.626,216.118 C351.287,218.048 348.158,216.796 345.906,212.397 C343.504,207.704 339.413,206.199 334.741,206.642 C328.925,207.193 323.052,208.351 320.319,214.626 C318.283,219.299 315.813,220.922 312.123,219.371 C307.865,217.58 307.322,214.178 308.793,210.29 C312.944,199.311 322.313,196.054 332.689,194.378 C333.667,194.22 334.677,194.259 335.673,194.205" fill="#6E4100"/>
    <path d="M457.307,399.157 C454.595,399.381 452.335,398.337 450.779,396.242 C448.709,393.456 446.683,390.588 445.07,387.528 C442.997,383.596 444.234,379.439 447.747,377.008 C451.38,374.493 456.014,374.954 458.899,378.509 C461.082,381.198 463.136,384.094 464.673,387.183 C467.499,392.862 463.521,399.09 457.307,399.157" fill="#6E4100"/>
  </g>
</svg>
